# xmcd CD database file
#
# Track frame offsets:
#	150
#	2795
#	9943
#	16630
#	23458
#	30228
#	36773
#	46048
#	53410
#	56968
#	60510
#	74340
#	80815
#	90110
#	95850
#	102528
#	110978
#	131485
#	136180
#	140155
#	145085
#	149545
#	153478
#	157445
#	161000
#	164118
#	167688
#	171105
#	174170
#	177825
#	181083
#	185465
#	188645
#	192305
#	195568
#	199505
#	203720
#	207863
#	212495
#	216765
#	221318
#	224498
#	228518
#	232178
#	237710
#	241168
#	244603
#	245548
#	253255
#	257845
#	262288
#	263530
#	265275
#	274745
#	275665
#	281723
#	288743
#
# Disc length: 3931 seconds
#
# Revision: 7
# Processed by: cddbd v1.5.2PL0 Copyright (c) Steve Scherf et al.
# Submitted via: CDex 1.70beta2
#
DISCID=590f5939
DTITLE=久石 譲＆福田 裕彦 - 天外魔境II 卍MARU
DYEAR=1992
DGENRE=ゲーム
TTITLE0=久石 譲/タイトル
TTITLE1=久石 譲/オープニング(宇宙空間)
TTITLE2=久石 譲/卍丸のテーマ
TTITLE3=久石 譲/極楽のテーマ
TTITLE4=久石 譲/カブキのテーマ
TTITLE5=久石 譲/絹のテーマ
TTITLE6=久石 譲/Lマップ(通常)
TTITLE7=福田 裕彦/破滅への確実な歩み
TTITLE8=福田 裕彦/根の進撃
TTITLE9=福田 裕彦/鋼鉄城のテーマ
TTITLE10=福田 裕彦/殺意
TTITLE11=福田 裕彦/ボスバトル
TTITLE12=久石 譲/Lマップ(聖剣有り)
TTITLE13=福田 裕彦/機械獣デデベ
TTITLE14=福田 裕彦/魔獣
TTITLE15=福田 裕彦/神への挑戦
TTITLE16=久石 譲/エンディング
TTITLE17=福田 裕彦/のどかな村
TTITLE18=福田 裕彦/活気あふれる城下町
TTITLE19=福田 裕彦/根の一族に殺された者たちへのレクイエム
TTITLE20=福田 裕彦/盆と正月のテーマ
TTITLE21=福田 裕彦/世捨て人のテーマ
TTITLE22=福田 裕彦/桃源郷
TTITLE23=福田 裕彦/知的静寂
TTITLE24=福田 裕彦/霊験あらたか
TTITLE25=福田 裕彦/神聖な空間
TTITLE26=福田 裕彦/激闘
TTITLE27=福田 裕彦/死闘
TTITLE28=福田 裕彦/果てなき戦い
TTITLE29=福田 裕彦/静寂の中を進む
TTITLE30=福田 裕彦/闇に潜む魔物
TTITLE31=福田 裕彦/邪神崇拝
TTITLE32=福田 裕彦/生き物の腹の中へ
TTITLE33=福田 裕彦/死闘の予感
TTITLE34=福田 裕彦/悪の楽園
TTITLE35=福田 裕彦/ワタシのんきな宣教師
TTITLE36=福田 裕彦/金、それが人生
TTITLE37=福田 裕彦/ナルシストのテーマ
TTITLE38=福田 裕彦/ナルシストの剣舞
TTITLE39=福田 裕彦/大いなる馬鹿
TTITLE40=福田 裕彦/高速飛行する乗り物
TTITLE41=福田 裕彦/地上軽量級の乗り物
TTITLE42=福田 裕彦/地上中量級の乗り物
TTITLE43=福田 裕彦/地上重量級の乗り物
TTITLE44=福田 裕彦/潜水艦
TTITLE45=福田 裕彦/間抜けな乗り物
TTITLE46=福田 裕彦/聖剣は我が手に
TTITLE47=福田 裕彦/暗黒の歴史
TTITLE48=福田 裕彦/したたかな女たち
TTITLE49=福田 裕彦/商店街
TTITLE50=福田 裕彦/巨大な味方登場
TTITLE51=福田 裕彦/仲間の死を越えて
TTITLE52=福田 裕彦/神との別れ
TTITLE53=福田 裕彦/武装
TTITLE54=福田 裕彦/魔物の潜む洞窟
TTITLE55=福田 裕彦/EXTRA1
TTITLE56=福田 裕彦/EXTRA2
EXTD=YEAR: 1992
EXTT0=
EXTT1=
EXTT2=
EXTT3=
EXTT4=
EXTT5=
EXTT6=
EXTT7=
EXTT8=
EXTT9=
EXTT10=
EXTT11=
EXTT12=
EXTT13=
EXTT14=
EXTT15=
EXTT16=
EXTT17=
EXTT18=
EXTT19=
EXTT20=
EXTT21=
EXTT22=
EXTT23=
EXTT24=
EXTT25=
EXTT26=
EXTT27=
EXTT28=
EXTT29=
EXTT30=
EXTT31=
EXTT32=
EXTT33=
EXTT34=
EXTT35=
EXTT36=
EXTT37=
EXTT38=
EXTT39=
EXTT40=
EXTT41=
EXTT42=
EXTT43=
EXTT44=
EXTT45=
EXTT46=
EXTT47=
EXTT48=
EXTT49=
EXTT50=
EXTT51=
EXTT52=
EXTT53=
EXTT54=
EXTT55=
EXTT56=
PLAYORDER=
